<svg version="1.2" xmlns="http://www.w3.org/2000/svg" viewBox="0 0 1400 3000" width="1400" height="3000">
	<title>courbe (1)-svg</title>
	<style>
		.s0 { 
		fill: white;
		stroke: #2d16c1;
		stroke-miterlimit:100;
		stroke-width: 2 } 
	</style>
	<path id="Forme 1" fill-rule="evenodd" class="s0" d="m1018-8c0 0-25 41.5-18 67 7 25.5 61.8 92.3 53 133-8.8 40.7-12.6 43.7-7 62 5.6 18.3 18 16.2 17 38-1 21.8-37.9 66.6-34 89 3.9 22.4 4.8 6.4 8 33 3.2 26.6-11.6 32-5 47 6.6 15 14.7 8.6 11 31-1 6.3 28.7 19.2-1.3 26-29.9 6.8-31 71.5-0.7 55 30.3-16.5 30.1 34.9 1 34-29.1-0.9-30.7 39.6-17 55 13.7 15.4 19 17.8 15 40-4 22.2-24.9 44.2-14 57 10.9 12.8 22.2 19 19 36-3.2 17-69 41.4-59 90 10 48.6-30.1 7.1 9 19 39.1 11.9 48.3 29.1 21 20-27.3-9.1-2.5 100.9-19 139-16.5 38.1-21 19-10 49 11 30 27 42.4 18 62-9 19.6-14.4 198 21 171 35.4-27 12 4 12 4l-12 13c0 0-26.4 35.8-7 55 19.4 19.2 36.9 81.3-20 130-56.9 48.7-40.2 30.4-33 77 7.2 46.6 78.3-7.7 85 73 6.7 80.7 4.6 40.2 46 107 41.4 66.8 61.6 13.7 51 90-10.6 76.3-56.1 22.1-75 92-18.9 69.9-54.2 63.7-14 127 40.2 63.3 92.4 32.8 72 83-20.4 50.2-37.5 30.1-12 73 25.5 42.9 72-13.2 67 57-5 70.2-150.6 222.1-121 260 29.6 37.9 70.9 22.2 44 69-26.9 46.8-92.1 28.6-48 77 44.1 48.4 146.2 66.3 90 96-56.2 29.7-44.7 64-41 72 3.7 8 49 6.3 42 46-7 39.7-57.9-1.6-27 54 30.9 55.6 63.4 40.1 63 64"/>
</svg>