<svg version="1.2" xmlns="http://www.w3.org/2000/svg" viewBox="0 0 700 1250" width="250" height="446">
	<title>carte</title>
	<style>
		tspan { white-space:pre } 
		.s0 { fill: #ffffff } 
		.s1 { fill: none;stroke: #2d16c1;stroke-miterlimit:100;stroke-width: 10 } 
		.s2 { fill: #2d16c1 } 
		.s3 { fill: none;stroke: #2d16c1;stroke-miterlimit:100;stroke-width: 6 } 
		.s4 { fill: none;stroke: #2d16c1;stroke-linecap: round;stroke-miterlimit:50;stroke-width: 4;stroke-dasharray: 0,8 } 
		.s5 { fill: none;stroke: #2d16c1;stroke-linecap: round;stroke-miterlimit:50;stroke-width: 2 } 
		.s6 { fill: none;stroke: #2d16c1;stroke-linecap: round;stroke-miterlimit:50;stroke-width: 4 } 
		.s7 { fill: none;stroke: #2d16c1;stroke-linecap: round;stroke-miterlimit:50;stroke-width: 70 } 
		.s8 { fill: none;stroke: #2d16c1;stroke-linecap: round;stroke-miterlimit:50;stroke-width: 10 } 
		.s9 { fill: #2d16c1;stroke: #2d16c1;stroke-linecap: round;stroke-miterlimit:50;stroke-width: 3 } 
		.s10 { fill: none;stroke: #ffffff;stroke-linecap: round;stroke-miterlimit:50;stroke-width: 3 } 
		.s11 { fill: none;stroke: #2d16c1;stroke-linecap: round;stroke-miterlimit:50;stroke-width: 3 } 
		.s12 { fill: none;stroke: #ffffff;stroke-linecap: round;stroke-miterlimit:50;stroke-width: 20 } 
		.t13 { font-size: 45px;fill: #2d16c1;font-weight: 700;font-family: "PlayfairDisplay-Bold", "Playfair Display" } 
	</style>
	<path id="Forme 17" class="s0" d="m0 30c0-16.6 13.4-30 30-30h640c16.6 0 30 13.4 30 30v1190c0 16.6-13.4 30-30 30h-640c-16.6 0-30-13.4-30-30z"/>
	<path id="Forme 1" class="s1" d="m0 30c0-16.6 13.4-30 30-30h640c16.6 0 30 13.4 30 30v1190c0 16.6-13.4 30-30 30h-640c-16.6 0-30-13.4-30-30z"/>
	<path id="Forme 5" class="s2" d="m38.8 140.8l-3.9-3.2 62.3-74.2 3.9 3.3z"/>
	<path id="Forme 2" class="s3" d="m54 80.6h592v1088.2h-592z"/>
	<path id="Forme 9 copy" class="s2" d="m35.8 134.5h5v988.6h-5z"/>
	<path id="Forme 4" class="s3" d=""/>
	<path id="Forme 6" class="s2" d="m606.2 66.6l3.8-3.2 54.5 63.6-3.8 3.3z"/>
	<path id="Forme 7" class="s2" d="m610.9 1185.6l-3.6-3.5 54.1-54.3 3.6 3.5z"/>
	<path id="Forme 8" class="s2" d="m36.1 1123.7l3.9-3.1 50 61.2-3.8 3.1z"/>
	<path id="Forme 9" class="s2" d="m659.8 127h5.1l-0.1 1005.1h-5.1z"/>
	<path id="Forme 10" class="s2" d="m87.2 1186v-4.8h523.8v4.8z"/>
	<path id="Forme 11" class="s2" d="m99 67.3v-4.7l511.4 0.1v4.7z"/>
	<path id="Forme 12" class="s2" d="m53.9 1093.2v-5h591.2v5z"/>
	<path id="Forme 13" class="s4" d="m22 41c0-5.5 4.5-10 10-10h635c5.5 0 10 4.5 10 10v1167c0 5.5-4.5 10-10 10h-635c-5.5 0-10-4.5-10-10z"/>
	<path id="Forme 14" class="s0" d="m350 1226c-4.4 0-8-3.6-8-8 0-4.4 3.6-8 8-8 4.4 0 8 3.6 8 8 0 4.4-3.6 8-8 8z"/>
	<path id="Forme 15" class="s5" d="m349 1225c-4.4 0-8-3.6-8-8 0-4.4 3.6-8 8-8 4.4 0 8 3.6 8 8 0 4.4-3.6 8-8 8z"/>
	<g id="portrait">
		<path id="Forme 23" class="s2" d="m101.8 930c0 0-39.3-71.8-17-116.9 22.4-45 38.5-85.7 62.1-112.9 23.6-27.2 37.7-191.9 38.6-205.2 0.9-13.2 8.7-143 25.4-173.1 16.8-30.1 31.9-84.8 124.2-80.6 92.2 4.3 93.5-15.5 129.6 18.1 36 33.7 78.4 109 85.6 154.7 7.1 45.7 47 138.6 46.6 179.6-0.3 41.1 12.1 134.8 7 184-5.2 49.1-10.5 100.2-1.6 142.6 8.9 42.5-24.3 48.9-37 40.5-12.7-8.3-98.3-14.2-111.1-63.2-12.7-49-24.4-101-22.7-127.6 1.7-26.6-2.2-51.3 17.7-148.1 20-96.8-33-231-33.1-242.2-0.2-11.1-29.7-35.7-62.9-50.1-33.2-14.4-50.9-15.3-68.2-11.6-17.4 3.8-48.5 25.7-52.5 46.7-3.9 21-21.8 71.6-14.2 86 7.6 14.4-17.4 48.9-3.5 118 13.8 69.1 52.2 81.1 58.2 92.9 6.1 11.8 23.7 61.5-24.3 116.1-48 54.5-67.9 47.4-77.9 99.8-9.9 52.5 10.3 62-15 64.1-25.3 2-44.4-5.7-54-11.6z"/>
		<path id="Forme 21" class="s6" d="m342.8 470c0 0 40 23.7 58.6 1.9"/>
		<path id="Forme 20" class="s6" d="m344 469.2c0 0 38.7-30.6 57 2.3"/>
		<path id="Forme 24" class="s6" d="m278 348"/>
		<path id="Forme 18" class="s6" d="m230.6 464.6c0 0 22.7 13.2 54.4 2.7"/>
		<path id="Forme 16" class="s5" d="m339.3 463.4c0 0 43.1-32.5 69.8 7"/>
		<path id="Forme 14" class="s7" d="m256.4 775.7c0 0 76.9 82 180.1 4.7"/>
		<path id="Forme 13" class="s8" d="m259.1 654.5c0 0 17.9 19.5 49.9 20 32 0.5 57.6-8 79.1-18.8 21.5-10.8 63.7-56.4 70.3-73.5"/>
		<path id="Forme 10" class="s9" d="m256.4 581.8c0 0 12.8 2 19.7 1.1 6.9-0.8 9.4-7.5 13.9-4.2 4.5 3.3 5.6 2.8 8.5 2.3 2.8-0.5 6.1-5 8.8-3.8 2.8 1.1 14.9 4.1 18.5 4.6 3.7 0.5 35 3.9 37.4 2.7 2.5-1.2-7.4 0.8-15.4 6.2-7.9 5.3-20 10-20 10 0 0-13.1 5.4-17 5.4-3.9-0.1-25.4-1.2-25.4-1.2 0 0-10.8-5.7-15.9-11.5"/>
		<path id="Forme 11" class="s10" d="m256.4 581.8l17.8 5.8 12.7 1.1 6.2 2.7 9.2-0.7 12-1.2c0 0 2.5 0 13.1 0 10.6 0.1 31.8-3.3 35.1-5"/>
		<path id="Forme 19" class="s10" d="m342.4 471.5"/>
		<path id="Forme 17" class="s6" d="m231 463.8c0 0 21.3-33.1 54 3.1"/>
		<path id="Forme 7 copy" class="s2" d="m260.9 468.5c-5 0-9.1-4.1-9.1-9.1 0-5 4.1-9.1 9.1-9.1 5 0 9.1 4.1 9.1 9.1 0 5-4.1 9.1-9.1 9.1z"/>
		<path id="Forme 9" class="s11" d="m274.9 433.3c0 0 22.7 18.3 19.7 35.9-3 17.6-13.5 44.3-13.5 44.3l-7.3 14.7c0 0-8.6 6.6-7 12.3 1.7 5.8 4.7 7.4 4.7 7.4 0 0 6.7-3.2 8.1-1.6 1.4 1.7 7.7 5.4 12.3 5.8 4.6 0.4 14.2-7.2 18.1-5.4 4 1.8 14.1 4.5 16.2 3.9 2.1-0.7 16.1-2.6 14.3-9.3-1.8-6.6-11.6-23.9-11.6-23.9"/>
		<path id="Forme 7" class="s2" d="m377.7 476.5c-5.2 0-9.4-4.2-9.4-9.4 0-5.2 4.2-9.5 9.4-9.5 5.2 0 9.5 4.3 9.5 9.5 0 5.2-4.3 9.4-9.5 9.4z"/>
		<path id="Forme 12" class="s0" d="m376.5 470c-0.9 0-1.7-1.4-1.7-3.1 0-1.7 0.8-3.1 1.7-3.1 1 0 1.8 1.4 1.8 3.1 0 1.7-0.8 3.1-1.8 3.1z"/>
		<path id="Forme 3" class="s2" d="m219.8 425.6l11.6-11.2 18.5 2.4 15.4 5.4 6.6 4.6 5.7 10.4-10.8-1.2-10.4-3.4-12.7-7-8.5-0.4"/>
		<path id="Forme 4" class="s2" d="m342 431.4l24.3-8.5 18.5-1.5 12.8 2.3 16.5 5.4 12 8.1 4.6 6.2-15.4-5.4-15.8-3.5-10.8-2.3-13.5-0.4-9.6 3.5-9.3 0.7-6.6 1.2-5.7 1.9"/>
		<path id="Forme 22" class="s12" d="m247.6 786.9"/>
		<path id="Forme 8" class="s0" d="m261.3 461.6c-0.6 0-1-1-1-2.3 0-1.2 0.4-2.3 1-2.3 0.5 0 0.9 1.1 0.9 2.3 0 1.3-0.4 2.3-0.9 2.3z"/>
		<path id="Forme 15" class="s5" d="m228.7 458c0 0 24.6-27.7 55.1 0"/>
		<text id="Julie Gonçalves - 31 ans" style="transform: matrix(1,0,0,1,112,1105)" >
			<tspan x="0" y="35.2" class="t13">Julie Gonçalves</tspan><tspan  y="35.2" class="t13"> </tspan><tspan  y="35.2" class="t13">-</tspan><tspan  y="35.2" class="t13"> </tspan><tspan  y="35.2" class="t13">3</tspan><tspan  y="35.2" class="t13">1</tspan><tspan  y="35.2" class="t13"> </tspan><tspan  y="35.2" class="t13">a</tspan><tspan  y="35.2" class="t13">n</tspan><tspan  y="35.2" class="t13">s
</tspan>
		</text>
		<text id="" style="transform: matrix(1,0,0,1,452,99)" >
		</text>
	</g>
</svg>