<svg version="1.2" xmlns="http://www.w3.org/2000/svg" viewBox="0 0 349 349" width="350" height="350">
	<title>lune-svg</title>
	<style>
		.s0 { fill: #ffffff } 
		.s1 { fill: none;stroke: #2d16c1;stroke-miterlimit:100;stroke-width: 5 } 
		.s2 { fill: #2d16c1 } 
		.s3 { fill: none;stroke: #2d16c1;stroke-miterlimit:100;stroke-width: 3 } 
	</style>
	<path id="Forme 18" class="s0" d="m244 49c-38.4 46.3-68.4 64.8-63.1 126.9 4.2 48.3 17 58.3 56.2 94.7 17.9 16.7 36.8 14.8 42.7 26.5 0.6 1.3-2.6 0.8-5.1 1.9-10.1 4.3-9.5 5.9-19.9 9.6-8.3 3-8.4 2.8-17.1 4.4-16.1 3-16.8 4.4-32.8 2.8-42.3-4.2-50-4.8-81.5-30.8-39.1-32.1-45.6-44.5-51.6-95-4.7-39.6-4-48.4 16.8-83.2 15-25.2 18.5-26.7 44.2-42.5 14-8.6 15-7.6 30.8-13.2 14-4.9 14.1-6.6 28.6-8.2 28.8-3.1 58.6 8.6 58.6 8.6"/>
	<path id="Forme 2" class="s1" d="m247 47c0 0-170.9 142.3 32 248"/>
	<path id="Forme 3" class="s1" d="m245 47"/>
	<path id="Forme 4" class="s1" d="m247 48c0 0-44.4-20.7-111 14-66.6 34.7-69 112-69 112 0 0 2.1 75.3 47 107 44.9 31.7 74.9 35 91 37 16.1 2 72.3-16 73-24"/>
	<path id="Forme 5" class="s2" d="m187.5 300c-1.9 0-3.5-1.8-3.5-4 0-2.2 1.6-4 3.5-4 1.9 0 3.5 1.8 3.5 4 0 2.2-1.6 4-3.5 4z"/>
	<path id="Forme 6" class="s2" d="m200 277c-1.7 0-3-1.1-3-2.5 0-1.4 1.3-2.5 3-2.5 1.7 0 3 1.1 3 2.5 0 1.4-1.3 2.5-3 2.5z"/>
	<path id="Forme 7" class="s2" d="m139.5 275c-1.4 0-2.5-1.3-2.5-3 0-1.7 1.1-3 2.5-3 1.4 0 2.5 1.3 2.5 3 0 1.7-1.1 3-2.5 3z"/>
	<path id="Forme 8" class="s2" d="m119.5 257c-1.4 0-2.5-1.3-2.5-3 0-1.7 1.1-3 2.5-3 1.4 0 2.5 1.3 2.5 3 0 1.7-1.1 3-2.5 3z"/>
	<path id="Forme 9" class="s2" d="m162 270c-1.1 0-2-0.9-2-2 0-1.1 0.9-2 2-2 1.1 0 2 0.9 2 2 0 1.1-0.9 2-2 2z"/>
	<path id="Forme 10" class="s2" d="m163.5 270c-0.3 0-0.5-0.2-0.5-0.5 0-0.3 0.2-0.5 0.5-0.5 0.3 0 0.5 0.2 0.5 0.5 0 0.3-0.2 0.5-0.5 0.5z"/>
	<path id="Forme 11" class="s2" d="m202.5 311c-1.4 0-2.5-1.1-2.5-2.5 0-1.4 1.1-2.5 2.5-2.5 1.4 0 2.5 1.1 2.5 2.5 0 1.4-1.1 2.5-2.5 2.5z"/>
	<path id="Forme 12" class="s2" d="m221 213l18-6 9-22 5 19 17 11-16 7-9 20-4-21"/>
	<path id="Forme 14" class="s2" d="m267 178l7-5 1-8 3 9 5 4-4 3-4 10-2-9"/>
	<path id="Forme 15" class="s3" d="m277 229l-4 12-10 5 8 5 4 11 4-10 9-7-9-5z"/>
	<path id="Forme 17" class="s3" d="m224 151l-3 13-9 3 10 3 2 14 6-14 11-4-12-4z"/>
</svg>