<svg version="1.2" xmlns="http://www.w3.org/2000/svg" viewBox="0 0 350 350" width="350" height="350">
	<title>oeil-svg</title>
	<style>
		.s0 { fill: #ffffff } 
		.s1 { fill: #2d16c1 } 
		.s2 { fill: none;stroke: #2d16c1;stroke-miterlimit:100;stroke-width: 5.1 } 
	</style>
	<path id="Forme 1" class="s0" d="m53 203c0.3-1 2.1-1 4.2-2.2 18.5-10.4 17.9-11.6 36.7-21.5 24.8-13 24.2-16.6 51.1-23.3 18.3-4.6 19.2-5.2 38-4 17.7 1.1 18.2 1.9 35 8 16.3 5.9 16.1 6.9 31.2 15.7 9.6 5.7 9.1 6.7 18.8 12.3 10.6 6.1 10.9 5.7 22 11 5.5 2.6 10.4 3.1 11 5 1 3-9.5 1.6-18.9 3.5-11.1 2.1-11 2.8-22.1 4.5-10.4 1.5-11.2-1.2-21 2-6.9 2.3-6.3 3.9-13 7-10.6 4.9-10.7 5.5-22 8-9.3 2-9.5 1.5-19 2-10.5 0.6-10.6 1-21 0-6-0.6-6-0.8-12-2-10.1-2-10.3-1.7-20-5-10.8-3.6-10.5-4.6-21-9-8.5-3.6-8.1-5-17-7-7.7-1.7-8-0.5-16-1-9-0.5-9.4 1.3-18-1"/>
	<path id="Calque 1" class="s1" d="m133 159c-8.8 8.8-7 15.9-4 29 4.2 18.7 9.3 24.3 26.6 32.3 15 6.9 21.1 7.2 36.4 1 18.2-7.3 21.1-13.3 28.5-32.6 2.4-6.2 2.1-7 1.5-13.7-0.7-7.7-0.1-9.8-5-15-5.3-5.6-7.8-3.8-16-6-9.7-2.6-10-2.4-20-3-14.6-0.8-15.1-1.1-29.4 1.9"/>
	<path id="Forme 2" class="s0" d="m175 195c-8.8 0-16-7.2-16-16 0-8.8 7.2-16 16-16 8.8 0 16 7.2 16 16 0 8.8-7.2 16-16 16z"/>
	<path id="Forme 3" class="s0" d="m-4 68"/>
	<path id="Forme 4" class="s2" d="m60 207c-3.8 0.2 13.5-1.8 26 1 9.3 2.1 9 3.4 18 7 10.3 4.2 10 5.1 20.5 8.6 12.9 4.3 13.1 4.3 26.5 6.4 17.3 2.7 17.8 4 35 2 15.8-1.9 15.9-3.5 31-9 10.7-3.9 10.1-5.7 21-9 9.7-3 9.9-2.4 20-4 17.4-2.8 37.7-3.2 35-4"/>
	<path id="Forme 41" class="s0" d="m32 202c-4.5-3.1 23.4-8.8 43-23 14.8-10.8 12.4-14.2 27.3-25 16.4-12 16.8-12.5 35.7-20 16.2-6.4 16.6-7.7 33.9-9.1 11.6-0.9 12.2-1.2 23.5 1.3 11.2 2.5 10.9 4.2 21.6 8.8 11.1 4.8 11.9 3.6 22 10 9.2 5.8 8.5 7 17 14 5.5 4.5 5.7 4.2 11 9 5.2 4.7 4.7 5.4 10 10 9.2 8 9.9 7.2 20 14 3.2 2.2 3.2 2.2 6.5 4.2 5.1 3.1 5 3.3 10.5 5.8 2 0.9 2.1 0.8 4.1 1.6 2.5 1.1 4.6 1.5 4.9 2.4 0.7 1.7-5.2 2.4-10 2-14.3-1.2-13.2-7.7-27-14-7.6-3.5-8.1-2.6-15.4-6.4-12.7-6.7-11.3-9.2-23.6-16.6-9.2-5.5-9.1-5.8-19-10-10.6-4.5-10.9-3.8-22-7-9.9-2.9-9.8-4.1-19.9-5.2-16.8-1.9-17.5-0.4-34.1 3.2-11.2 2.5-11.2 3-22 7-14.9 5.6-14.7 6.2-29 13-12.1 5.8-12.1 5.9-24 12-15.1 7.8-13.9 11.4-30 16"/>
	<path id="Forme 5" class="s2" d="m22.8 206.9c2.3 0.7 11.4-1.9 22-6 14.7-5.6 13.8-7.8 28-15 12.3-6.2 12.5-5.9 25-12 15-7.4 14.3-9.6 30-15 17.2-5.9 17.8-4.6 36-7 12.4-1.6 12.6-2.7 25-2 9 0.5 9.2 0.5 18 3 6.6 1.9 6.6 2.2 13 5 8.2 3.6 7.9 4.1 16 8 8.4 4.1 9.3 2.8 17 8 6 4.2 5 5.8 11 10 6 4.2 6.3 3.9 13 7 5.8 2.8 6 2.5 12 5 15.7 6.6 15.1 11.8 31.4 13.4 4.1 0.4 8.5 0.7 8.6-1.4 0-1.3-1.8-2.4-4-4-4.3-3.1-5.2-1.7-10-4-9.9-4.6-9.9-4.9-19-11-10-6.7-9.6-7.4-19-15-11.2-9-10.5-9.9-22.1-18.4-14.7-10.9-14.5-11.7-30.9-19.6-12.5-6-12.7-6.5-26.1-9.5-17.4-4-18.4-4.9-35.9-2.5-12.3 1.7-12.6 2.6-24.2 7.4-8.7 3.6-8.7 3.8-16.8 8.6-11.6 7-11.5 7.5-22 16-10.5 8.5-9.4 9.9-20 18-25.7 19.6-62.6 31.1-56 33z"/>
	<path id="Forme 40" class="s2" d="m59 207c0 0 6 0 4 0"/>
	<path id="Forme 6" class="s1" d="m46 191.6l-1.4 4.8-30.1-8.4 1.4-4.8z"/>
	<path id="Forme 7" class="s1" d="m66.9 182.3l-2.1 4.6-56.5-25.7 2.1-4.5z"/>
	<path id="Forme 8" class="s1" d="m34.2 151.3l2.6-4.3 42.9 25.9-2.6 4.2z"/>
	<path id="Forme 9" class="s1" d="m92.1 162.7l-3.3 3.7-49.9-44.8 3.3-3.7z"/>
	<path id="Forme 10" class="s1" d="m104.1 149.7l-3.6 3.5-32.7-33.1 3.5-3.5z"/>
	<path id="Forme 11" class="s1" d="m120.2 140.4l-3.9 3.2-44.2-54.5 3.9-3.1z"/>
	<path id="Forme 12" class="s1" d="m133 131.9l-4.4 2.3-21.7-42.1 4.5-2.3z"/>
	<path id="Forme 13" class="s1" d="m148.6 127.5l-4.6 2.1-28.6-62.1 4.5-2.1z"/>
	<path id="Forme 14" class="s1" d="m164.1 121.7l-4.9 1.2-12.2-47.9 4.9-1.2z"/>
	<path id="Forme 15" class="s1" d="m177.5 122.1h-5v-73.5h5z"/>
	<path id="Forme 16" class="s1" d="m196 124.6l-4.8-1.1 11-49.6 4.8 1z"/>
	<path id="Forme 17" class="s1" d="m210.7 128.6l-4.6-1.8 25-63.1 4.6 1.9z"/>
	<path id="Forme 18" class="s1" d="m227.2 135.1l-4.6-1.9 18.5-44.4 4.6 1.9z"/>
	<path id="Forme 19" class="s1" d="m240.2 142.5l-4-3 42.7-55 3.9 3.1z"/>
	<path id="Forme 20" class="s1" d="m253.3 153.9l-3.4-3.6 33.1-31.6 3.5 3.6z"/>
	<path id="Forme 21" class="s1" d="m265.4 162.6l-3.2-3.9 47.6-39.2 3.2 3.9z"/>
	<path id="Forme 22" class="s1" d="m278.8 174.4l-2.5-4.4 40.4-23 2.5 4.3z"/>
	<path id="Forme 23" class="s1" d="m292.5 185.4l-1.9-4.6 53.5-23.1 2 4.6z"/>
	<path id="Forme 24" class="s1" d="m310.4 198.4l-2-4.6 25.4-11.1 2 4.6z"/>
	<path id="Forme 25" class="s1" d="m266.2 214.6l2.1-4.6 25.1 11.4-2 4.6z"/>
	<path id="Forme 26" class="s1" d="m247.9 215.6l3.5-3.6 30.3 29-3.5 3.6z"/>
	<path id="Forme 27" class="s1" d="m232.1 221.5l3.9-3.2 37.2 46.1-3.9 3.1z"/>
	<path id="Forme 28" class="s1" d="m215.7 227.2l4.4-2.5 18.5 32-4.3 2.5z"/>
	<path id="Forme 29" class="s1" d="m201.5 231.9l4.5-2.1 25.4 56.6-4.5 2.1z"/>
	<path id="Forme 30" class="s1" d="m188.2 235l4.9-0.9 8.5 44.1-4.9 1z"/>
	<path id="Forme 31" class="s1" d="m175.3 232.6l5 0.2-2.8 72.2-5-0.2z"/>
	<path id="Forme 32" class="s1" d="m162.9 232.9l4.9 1.4-13 45-4.8-1.4z"/>
	<path id="Forme 33" class="s1" d="m145.8 231.5l4.6 2.1-24.4 52.6-4.5-2.1z"/>
	<path id="Forme 34" class="s1" d="m133.7 226.9l4.2 2.7-21.4 33.1-4.2-2.7z"/>
	<path id="Forme 35" class="s1" d="m114.6 222l3.8 3.2-36 41.8-3.8-3.3z"/>
	<path id="Forme 36" class="s1" d="m102.5 213.9l3.2 3.8-33.1 27.8-3.2-3.9z"/>
	<path id="Forme 37" class="s1" d="m88.4 207.2l2.2 4.5-34.1 16.8-2.2-4.5z"/>
	<path id="Forme 38" class="s1" d="m296.9 205.1l-0.7 4.9-9.6-1.3 0.6-4.9z"/>
	<path id="Forme 39" class="s1" d="m60.5 207.2"/>
</svg>